<svg width="294" height="190" viewBox="0 0 294 190" fill="none" xmlns="http://www.w3.org/2000/svg">
<mask id="path-1-inside-1_285_1650" fill="white">
<path fill-rule="evenodd" clip-rule="evenodd" d="M8 -0.000457764C3.58172 -0.000457764 0 3.58126 0 7.99954V30.2715V31.9995V181.999C0 186.418 3.58172 189.999 8 189.999H286C290.418 189.999 294 186.418 294 181.999V38.2715C294 33.8533 290.418 30.2715 286 30.2715H127.824C127.254 30.2715 126.77 29.8732 126.581 29.3365L118.108 5.33647C116.979 2.13824 113.956 -0.000457764 110.564 -0.000457764H8Z"/>
</mask>
<path d="M118.108 5.33647L117.637 5.50291L118.108 5.33647ZM-0.5 7.99954V10.7835H0.5V7.99954H-0.5ZM-0.5 16.3515V21.9195H0.5V16.3515H-0.5ZM-0.5 27.4875V30.2715H0.5V27.4875H-0.5ZM-0.5 30.2715V30.7035H0.5V30.2715H-0.5ZM-0.5 31.5675V31.9995H0.5V31.5675H-0.5ZM-0.5 31.9995V34.4995H0.5V31.9995H-0.5ZM-0.5 39.4995V44.4995H0.5V39.4995H-0.5ZM-0.5 49.4995V54.4995H0.5V49.4995H-0.5ZM-0.5 59.4995V64.4995H0.5V59.4995H-0.5ZM-0.5 69.4995V74.4995H0.5V69.4995H-0.5ZM-0.5 79.4995V84.4995H0.5V79.4995H-0.5ZM-0.5 89.4995V94.4995H0.5V89.4995H-0.5ZM-0.5 99.4994V104.499H0.5V99.4994H-0.5ZM-0.5 109.499V114.499H0.5V109.499H-0.5ZM-0.5 119.499V124.499H0.5V119.499H-0.5ZM-0.5 129.499V134.499H0.5V129.499H-0.5ZM-0.5 139.499V144.499H0.5V139.499H-0.5ZM-0.5 149.499V154.499H0.5V149.499H-0.5ZM-0.5 159.499V164.499H0.5V159.499H-0.5ZM-0.5 169.499V174.499H0.5V169.499H-0.5ZM-0.5 179.499V181.999H0.5V179.499H-0.5ZM-0.5 181.999C-0.5 183.151 -0.270708 184.25 0.145182 185.253L1.06891 184.87C0.702487 183.987 0.5 183.017 0.5 181.999H-0.5ZM4.74617 189.854C5.74908 190.27 6.8484 190.499 8 190.499V189.499C6.98214 189.499 6.01284 189.297 5.12923 188.93L4.74617 189.854ZM8 190.499H10.4821V189.499H8V190.499ZM15.4464 190.499H20.4107V189.499H15.4464V190.499ZM25.375 190.499H30.3393V189.499H25.375V190.499ZM35.3036 190.499H40.2679V189.499H35.3036V190.499ZM45.2321 190.499H50.1964V189.499H45.2321V190.499ZM55.1607 190.499H60.125V189.499H55.1607V190.499ZM65.0893 190.499H70.0536V189.499H65.0893V190.499ZM75.0179 190.499H79.9822V189.499H75.0179V190.499ZM84.9464 190.499H89.9107V189.499H84.9464V190.499ZM94.875 190.499H99.8393V189.499H94.875V190.499ZM104.804 190.499H109.768V189.499H104.804V190.499ZM114.732 190.499H119.696V189.499H114.732V190.499ZM124.661 190.499H129.625V189.499H124.661V190.499ZM134.589 190.499H139.554V189.499H134.589V190.499ZM144.518 190.499H149.482V189.499H144.518V190.499ZM154.446 190.499H159.411V189.499H154.446V190.499ZM164.375 190.499H169.339V189.499H164.375V190.499ZM174.304 190.499H179.268V189.499H174.304V190.499ZM184.232 190.499H189.196V189.499H184.232V190.499ZM194.161 190.499H199.125V189.499H194.161V190.499ZM204.089 190.499H209.053V189.499H204.089V190.499ZM214.018 190.499H218.982V189.499H214.018V190.499ZM223.946 190.499H228.911V189.499H223.946V190.499ZM233.875 190.499H238.839V189.499H233.875V190.499ZM243.803 190.499H248.768V189.499H243.803V190.499ZM253.732 190.499H258.696V189.499H253.732V190.499ZM263.661 190.499H268.625V189.499H263.661V190.499ZM273.589 190.499H278.553V189.499H273.589V190.499ZM283.518 190.499H286V189.499H283.518V190.499ZM286 190.499C287.152 190.499 288.251 190.27 289.254 189.854L288.871 188.93C287.987 189.297 287.018 189.499 286 189.499V190.499ZM293.855 185.253C294.271 184.25 294.5 183.151 294.5 181.999H293.5C293.5 183.017 293.298 183.987 292.931 184.87L293.855 185.253ZM294.5 181.999V179.433H293.5V181.999H294.5ZM294.5 174.3V169.167H293.5V174.3H294.5ZM294.5 164.033V158.9H293.5V164.033H294.5ZM294.5 153.767V148.634H293.5V153.767H294.5ZM294.5 143.501V138.368H293.5V143.501H294.5ZM294.5 133.235V128.101H293.5V133.235H294.5ZM294.5 122.968V117.835H293.5V122.968H294.5ZM294.5 112.702V107.569H293.5V112.702H294.5ZM294.5 102.436V97.3026H293.5V102.436H294.5ZM294.5 92.1695V87.0363H293.5V92.1695H294.5ZM294.5 81.9032V76.7701H293.5V81.9032H294.5ZM294.5 71.6369V66.5038H293.5V71.6369H294.5ZM294.5 61.3707V56.2376H293.5V61.3707H294.5ZM294.5 51.1044V45.9713H293.5V51.1044H294.5ZM294.5 40.8382V38.2715H293.5V40.8382H294.5ZM294.5 38.2715C294.5 37.1199 294.271 36.0206 293.855 35.0177L292.931 35.4008C293.298 36.2844 293.5 37.2537 293.5 38.2715H294.5ZM289.254 30.4167C288.251 30.0008 287.152 29.7715 286 29.7715V30.7715C287.018 30.7715 287.987 30.974 288.871 31.3404L289.254 30.4167ZM286 29.7715H283.529V30.7715H286V29.7715ZM278.585 29.7715H273.642V30.7715H278.585V29.7715ZM268.699 29.7715H263.756V30.7715H268.699V29.7715ZM258.813 29.7715H253.87V30.7715H258.813V29.7715ZM248.927 29.7715H243.984V30.7715H248.927V29.7715ZM239.041 29.7715H234.098V30.7715H239.041V29.7715ZM229.155 29.7715H224.212V30.7715H229.155V29.7715ZM219.269 29.7715H214.326V30.7715H219.269V29.7715ZM209.383 29.7715H204.44V30.7715H209.383V29.7715ZM199.497 29.7715H194.554V30.7715H199.497V29.7715ZM189.611 29.7715H184.668V30.7715H189.611V29.7715ZM179.725 29.7715H174.782V30.7715H179.725V29.7715ZM169.839 29.7715H164.896V30.7715H169.839V29.7715ZM159.953 29.7715H155.01V30.7715H159.953V29.7715ZM150.067 29.7715H145.124V30.7715H150.067V29.7715ZM140.181 29.7715H135.238V30.7715H140.181V29.7715ZM130.295 29.7715H127.824V30.7715H130.295V29.7715ZM127.824 29.7715C127.74 29.7715 127.66 29.7571 127.584 29.7301L127.25 30.6725C127.43 30.7365 127.623 30.7715 127.824 30.7715V29.7715ZM127.178 29.4138C127.126 29.3402 127.083 29.2581 127.052 29.17L126.109 29.5029C126.171 29.6787 126.257 29.8437 126.363 29.9928L127.178 29.4138ZM127.052 29.17L126.346 27.17L125.403 27.5029L126.109 29.5029L127.052 29.17ZM124.934 23.17L123.522 19.17L122.579 19.5029L123.991 23.5029L124.934 23.17ZM122.11 15.17L120.698 11.17L119.755 11.5029L121.167 15.5029L122.11 15.17ZM119.286 7.17003L118.58 5.17003L117.637 5.50291L118.343 7.50291L119.286 7.17003ZM118.58 5.17003C118.283 4.33039 117.864 3.55915 117.346 2.87393L116.548 3.477C117.005 4.08127 117.375 4.76157 117.637 5.50291L118.58 5.17003ZM113.14 -0.10126C112.322 -0.361657 111.455 -0.500458 110.564 -0.500458V0.499542C111.351 0.499542 112.115 0.622052 112.837 0.851687L113.14 -0.10126ZM110.564 -0.500458H108V0.499542H110.564V-0.500458ZM102.872 -0.500458H97.7439V0.499542H102.872V-0.500458ZM92.6156 -0.500458H87.4874V0.499542H92.6156V-0.500458ZM82.3592 -0.500458H77.231V0.499542H82.3592V-0.500458ZM72.1028 -0.500458H66.9745V0.499542H72.1028V-0.500458ZM61.8463 -0.500458H56.7181V0.499542H61.8463V-0.500458ZM51.5899 -0.500458H46.4617V0.499542H51.5899V-0.500458ZM41.3334 -0.500458H36.2052V0.499542H41.3334V-0.500458ZM31.077 -0.500458H25.9488V0.499542H31.077V-0.500458ZM20.8206 -0.500458H15.6923V0.499542H20.8206V-0.500458ZM10.5641 -0.500458H8V0.499542H10.5641V-0.500458ZM8 -0.500458C6.84839 -0.500458 5.74908 -0.271166 4.74617 0.144724L5.12922 1.06845C6.01284 0.702029 6.98214 0.499542 8 0.499542V-0.500458ZM0.145181 4.74571C-0.270709 5.74862 -0.5 6.84793 -0.5 7.99954H0.5C0.5 6.98168 0.702487 6.01238 1.06891 5.12877L0.145181 4.74571ZM118.108 5.33647L117.165 5.66935V5.66935L118.108 5.33647ZM-1 7.99954V10.7835H1V7.99954H-1ZM-1 16.3515V21.9195H1V16.3515H-1ZM-1 27.4875V30.2715H1V27.4875H-1ZM-1 30.2715V30.7035H1V30.2715H-1ZM-1 31.5675V31.9995H1V31.5675H-1ZM-1 31.9995V34.4995H1V31.9995H-1ZM-1 39.4995V44.4995H1V39.4995H-1ZM-1 49.4995V54.4995H1V49.4995H-1ZM-1 59.4995V64.4995H1V59.4995H-1ZM-1 69.4995V74.4995H1V69.4995H-1ZM-1 79.4995V84.4995H1V79.4995H-1ZM-1 89.4995V94.4995H1V89.4995H-1ZM-1 99.4994V104.499H1V99.4994H-1ZM-1 109.499V114.499H1V109.499H-1ZM-1 119.499V124.499H1V119.499H-1ZM-1 129.499V134.499H1V129.499H-1ZM-1 139.499V144.499H1V139.499H-1ZM-1 149.499V154.499H1V149.499H-1ZM-1 159.499V164.499H1V159.499H-1ZM-1 169.499V174.499H1V169.499H-1ZM-1 179.499V181.999H1V179.499H-1ZM-1 181.999C-1 183.218 -0.757306 184.382 -0.316681 185.445L1.53077 184.679C1.18909 183.855 1 182.95 1 181.999H-1ZM4.55465 190.316C5.6172 190.757 6.78152 190.999 8 190.999V188.999C7.04902 188.999 6.14472 188.81 5.32075 188.469L4.55465 190.316ZM8 190.999H10.4821V188.999H8V190.999ZM15.4464 190.999H20.4107V188.999H15.4464V190.999ZM25.375 190.999H30.3393V188.999H25.375V190.999ZM35.3036 190.999H40.2679V188.999H35.3036V190.999ZM45.2321 190.999H50.1964V188.999H45.2321V190.999ZM55.1607 190.999H60.125V188.999H55.1607V190.999ZM65.0893 190.999H70.0536V188.999H65.0893V190.999ZM75.0179 190.999H79.9822V188.999H75.0179V190.999ZM84.9464 190.999H89.9107V188.999H84.9464V190.999ZM94.875 190.999H99.8393V188.999H94.875V190.999ZM104.804 190.999H109.768V188.999H104.804V190.999ZM114.732 190.999H119.696V188.999H114.732V190.999ZM124.661 190.999H129.625V188.999H124.661V190.999ZM134.589 190.999H139.554V188.999H134.589V190.999ZM144.518 190.999H149.482V188.999H144.518V190.999ZM154.446 190.999H159.411V188.999H154.446V190.999ZM164.375 190.999H169.339V188.999H164.375V190.999ZM174.304 190.999H179.268V188.999H174.304V190.999ZM184.232 190.999H189.196V188.999H184.232V190.999ZM194.161 190.999H199.125V188.999H194.161V190.999ZM204.089 190.999H209.053V188.999H204.089V190.999ZM214.018 190.999H218.982V188.999H214.018V190.999ZM223.946 190.999H228.911V188.999H223.946V190.999ZM233.875 190.999H238.839V188.999H233.875V190.999ZM243.803 190.999H248.768V188.999H243.803V190.999ZM253.732 190.999H258.696V188.999H253.732V190.999ZM263.661 190.999H268.625V188.999H263.661V190.999ZM273.589 190.999H278.553V188.999H273.589V190.999ZM283.518 190.999H286V188.999H283.518V190.999ZM286 190.999C287.218 190.999 288.383 190.757 289.445 190.316L288.679 188.469C287.855 188.81 286.951 188.999 286 188.999V190.999ZM294.317 185.445C294.757 184.382 295 183.218 295 181.999H293C293 182.95 292.811 183.855 292.469 184.679L294.317 185.445ZM295 181.999V179.433H293V181.999H295ZM295 174.3V169.167H293V174.3H295ZM295 164.033V158.9H293V164.033H295ZM295 153.767V148.634H293V153.767H295ZM295 143.501V138.368H293V143.501H295ZM295 133.235V128.101H293V133.235H295ZM295 122.968V117.835H293V122.968H295ZM295 112.702V107.569H293V112.702H295ZM295 102.436V97.3026H293V102.436H295ZM295 92.1695V87.0363H293V92.1695H295ZM295 81.9032V76.7701H293V81.9032H295ZM295 71.6369V66.5038H293V71.6369H295ZM295 61.3707V56.2376H293V61.3707H295ZM295 51.1044V45.9713H293V51.1044H295ZM295 40.8382V38.2715H293V40.8382H295ZM295 38.2715C295 37.0531 294.757 35.8887 294.317 34.8262L292.469 35.5923C292.811 36.4162 293 37.3205 293 38.2715H295ZM289.445 29.9549C288.383 29.5142 287.218 29.2715 286 29.2715V31.2715C286.951 31.2715 287.855 31.4606 288.679 31.8023L289.445 29.9549ZM286 29.2715H283.529V31.2715H286V29.2715ZM278.585 29.2715H273.642V31.2715H278.585V29.2715ZM268.699 29.2715H263.756V31.2715H268.699V29.2715ZM258.813 29.2715H253.87V31.2715H258.813V29.2715ZM248.927 29.2715H243.984V31.2715H248.927V29.2715ZM239.041 29.2715H234.098V31.2715H239.041V29.2715ZM229.155 29.2715H224.212V31.2715H229.155V29.2715ZM219.269 29.2715H214.326V31.2715H219.269V29.2715ZM209.383 29.2715H204.44V31.2715H209.383V29.2715ZM199.497 29.2715H194.554V31.2715H199.497V29.2715ZM189.611 29.2715H184.668V31.2715H189.611V29.2715ZM179.725 29.2715H174.782V31.2715H179.725V29.2715ZM169.839 29.2715H164.896V31.2715H169.839V29.2715ZM159.953 29.2715H155.01V31.2715H159.953V29.2715ZM150.067 29.2715H145.124V31.2715H150.067V29.2715ZM140.181 29.2715H135.238V31.2715H140.181V29.2715ZM130.295 29.2715H127.824V31.2715H130.295V29.2715ZM127.824 29.2715C127.799 29.2715 127.775 29.2674 127.752 29.259L127.083 31.1437C127.315 31.2262 127.564 31.2715 127.824 31.2715V29.2715ZM127.586 29.1242C127.561 29.0885 127.539 29.0478 127.524 29.0036L125.638 29.6694C125.715 29.889 125.823 30.0954 125.955 30.2824L127.586 29.1242ZM127.524 29.0036L126.818 27.0036L124.932 27.6694L125.638 29.6694L127.524 29.0036ZM125.405 23.0036L123.993 19.0036L122.107 19.6694L123.52 23.6694L125.405 23.0036ZM122.581 15.0036L121.169 11.0036L119.283 11.6694L120.695 15.6694L122.581 15.0036ZM119.757 7.00359L119.051 5.00359L117.165 5.66935L117.871 7.66936L119.757 7.00359ZM119.051 5.00359C118.737 4.1148 118.293 3.29809 117.745 2.5724L116.149 3.77854C116.575 4.34233 116.921 4.97716 117.165 5.66935L119.051 5.00359ZM113.292 -0.577734C112.425 -0.853512 111.507 -1.00046 110.564 -1.00046V0.999542C111.298 0.999542 112.012 1.11391 112.686 1.32816L113.292 -0.577734ZM110.564 -1.00046H108V0.999542H110.564V-1.00046ZM102.872 -1.00046H97.7439V0.999542H102.872V-1.00046ZM92.6156 -1.00046H87.4874V0.999542H92.6156V-1.00046ZM82.3592 -1.00046H77.231V0.999542H82.3592V-1.00046ZM72.1028 -1.00046H66.9745V0.999542H72.1028V-1.00046ZM61.8463 -1.00046H56.7181V0.999542H61.8463V-1.00046ZM51.5899 -1.00046H46.4617V0.999542H51.5899V-1.00046ZM41.3334 -1.00046H36.2052V0.999542H41.3334V-1.00046ZM31.077 -1.00046H25.9488V0.999542H31.077V-1.00046ZM20.8206 -1.00046H15.6923V0.999542H20.8206V-1.00046ZM10.5641 -1.00046H8V0.999542H10.5641V-1.00046ZM8 -1.00046C6.78152 -1.00046 5.6172 -0.757764 4.55464 -0.317139L5.32075 1.53031C6.14472 1.18863 7.04902 0.999542 8 0.999542V-1.00046ZM-0.316682 4.55419C-0.757306 5.61674 -1 6.78106 -1 7.99954H1C1 7.04856 1.18908 6.14426 1.53077 5.32029L-0.316682 4.55419Z" fill="#387DFF" mask="url(#path-1-inside-1_285_1650)"/>
<path d="M146.5 85V99M139.5 92H153.5" stroke="#387DFF" stroke-width="1.5" stroke-linecap="round" stroke-linejoin="round"/>
<path d="M82.6836 119.045V120.645H77.1641V123.475H82.4023V125.021H77.1641V128.291C79.6074 128.273 81.5146 128.186 83.7383 127.816L83.9141 129.398C81.4707 129.785 79.3438 129.873 76.4961 129.873H75.1777V119.045H82.6836ZM86.9727 117.674V123.826H89.416V125.461H86.9727V133.564H85.0215V117.674H86.9727ZM103.32 117.691V126.691H101.352V117.691H103.32ZM103.32 127.465V133.371H92.7734V127.465H103.32ZM94.707 129.012V131.789H101.404V129.012H94.707ZM94.6543 118.447C97.0977 118.447 98.9258 119.994 98.9258 122.244C98.9258 124.424 97.0977 126.006 94.6543 126.006C92.1934 126.006 90.3652 124.424 90.3652 122.244C90.3652 119.994 92.1934 118.447 94.6543 118.447ZM94.6543 120.1C93.2656 120.1 92.2637 120.926 92.2812 122.244C92.2637 123.527 93.2656 124.354 94.6543 124.354C96.0254 124.354 97.0098 123.527 97.0098 122.244C97.0098 120.926 96.0254 120.1 94.6543 120.1ZM118.086 117.674V123.773H120.529V125.408H118.086V133.582H116.152V117.674H118.086ZM113.586 119.062V125.057H108.242V128.221C110.756 128.203 112.716 128.098 114.939 127.711L115.115 129.293C112.672 129.732 110.492 129.838 107.609 129.838H106.309V123.492H111.635V120.645H106.273V119.062H113.586ZM134.416 117.674V133.582H132.447V117.674H134.416ZM125.855 118.834C128.246 118.834 129.986 121.014 130.004 124.441C129.986 127.904 128.246 130.066 125.855 130.066C123.447 130.066 121.707 127.904 121.707 124.441C121.707 121.014 123.447 118.834 125.855 118.834ZM125.855 120.592C124.502 120.592 123.588 122.016 123.588 124.441C123.588 126.885 124.502 128.309 125.855 128.309C127.191 128.309 128.105 126.885 128.105 124.441C128.105 122.016 127.191 120.592 125.855 120.592ZM150.096 117.674V133.582H148.145V124.283H143.592V122.701H148.145V117.674H150.096ZM139.549 119.414V128.186C141.685 128.15 143.803 127.983 146.035 127.553L146.264 129.152C143.697 129.68 141.324 129.82 138.898 129.82H137.598V119.414H139.549ZM171.066 127.219V128.818H164.773V133.582H162.84V128.818H156.582V127.219H171.066ZM169.713 119.555V121.102H164.809C164.993 122.675 167.059 124.318 170.24 124.705L169.52 126.252C166.892 125.918 164.853 124.758 163.824 123.229C162.778 124.775 160.722 125.918 158.076 126.252L157.373 124.705C160.546 124.318 162.629 122.701 162.822 121.102H157.918V119.555H162.84V117.691H164.773V119.555H169.713ZM184.584 117.674V123.879H186.939V125.514H184.584V133.529H182.633V117.674H184.584ZM180.383 119.326C180.383 124.002 178.449 128.098 173.158 130.699L172.051 129.188C175.918 127.263 178.01 124.556 178.414 120.943H172.912V119.326H180.383ZM200.141 117.674V124.002H202.584V125.619H200.141V133.564H198.207V117.674H200.141ZM196.977 120.117V121.682H187.607V120.117H191.369V117.902H193.32V120.117H196.977ZM192.354 122.719C194.639 122.719 196.344 124.266 196.344 126.463C196.344 128.66 194.639 130.189 192.354 130.189C190.033 130.189 188.328 128.66 188.346 126.463C188.328 124.266 190.033 122.719 192.354 122.719ZM192.354 124.318C191.105 124.318 190.209 125.162 190.209 126.463C190.209 127.764 191.105 128.59 192.354 128.572C193.566 128.59 194.463 127.764 194.48 126.463C194.463 125.162 193.566 124.318 192.354 124.318ZM216.523 117.674V133.564H214.555V117.674H216.523ZM211.777 119.361C211.777 124.09 209.949 128.115 204.377 130.752L203.357 129.188C207.515 127.21 209.448 124.521 209.791 120.908H204.166V119.361H211.777Z" fill="#387DFF"/>
</svg>
