<svg width="57" height="56" viewBox="0 0 57 56" fill="none" xmlns="http://www.w3.org/2000/svg">
<path d="M28.5 0C22.9621 0 17.5486 1.64217 12.944 4.71885C8.33947 7.79553 4.75064 12.1685 2.63139 17.2849C0.512132 22.4012 -0.0423614 28.0311 1.03802 33.4625C2.11841 38.894 4.78515 43.8831 8.70102 47.799C12.6169 51.7149 17.606 54.3816 23.0375 55.462C28.469 56.5424 34.0988 55.9879 39.2151 53.8686C44.3315 51.7494 48.7045 48.1605 51.7812 43.556C54.8578 38.9514 56.5 33.5379 56.5 28C56.5 20.5739 53.55 13.452 48.299 8.20101C43.048 2.94999 35.9261 0 28.5 0ZM24.5 39.1816L14.5 29.1816L17.6812 26L24.5 32.8184L39.32 18L42.5114 21.1718L24.5 39.1816Z" fill="#E1283B"/>
</svg>
