<svg width="350" height="44" viewBox="0 0 350 44" fill="none" xmlns="http://www.w3.org/2000/svg">
<path d="M0.437 6.95625C0.437 5.71025 0.85975 4.6645 1.70525 3.819C2.59525 2.929 3.66325 2.484 4.90925 2.484H43.7578C45.0038 2.484 46.0718 2.90675 46.9618 3.75225C47.8073 4.64225 48.23 5.71025 48.23 6.95625C48.23 8.20225 47.785 9.27025 46.895 10.1602C46.0495 11.0057 45.0038 11.4285 43.7578 11.4285H28.8725V38.4622C28.6055 41.1322 27.137 42.5785 24.467 42.801C23.221 42.801 22.1308 42.4005 21.1963 41.5995C20.3063 40.754 19.8613 39.7082 19.8613 38.4622V11.4285H4.90925C3.66325 11.4285 2.6175 10.9835 1.772 10.0935C0.882 9.248 0.437 8.20225 0.437 6.95625ZM69.3898 43.4018C67.8768 43.4018 66.3638 43.1348 64.8508 42.6008C63.3823 42.0668 61.9583 41.288 60.5788 40.2645C59.1993 39.1965 57.9978 37.7947 56.9743 36.0592C55.9508 34.3237 55.3945 32.2545 55.3055 29.8515V5.75475C55.3055 4.50875 55.7505 3.48525 56.6405 2.68425C57.575 1.83875 58.6653 1.416 59.9113 1.416C62.5813 1.6385 64.0275 3.08475 64.25 5.75475V29.3175C64.2945 30.3855 64.517 31.2977 64.9175 32.0542C65.318 32.7662 65.763 33.3447 66.2525 33.7897C66.742 34.1902 67.2315 34.5017 67.721 34.7242C68.255 34.9022 68.789 34.9912 69.323 34.9912C69.857 34.9912 70.391 34.9022 70.925 34.7242C71.459 34.5017 71.9708 34.1902 72.4603 33.7897C72.9498 33.3447 73.3948 32.7662 73.7953 32.0542C74.1958 31.2977 74.396 30.3855 74.396 29.3175V5.75475C74.396 4.50875 74.841 3.48525 75.731 2.68425C76.6655 1.83875 77.7558 1.416 79.0018 1.416C81.6718 1.6385 83.1403 3.08475 83.4073 5.75475V29.3175C83.4518 30.3855 83.6743 31.2755 84.0748 31.9875C84.4753 32.744 84.9203 33.3447 85.4098 33.7897C85.8993 34.1902 86.3888 34.5017 86.8783 34.7242C87.4123 34.9022 87.9463 34.9912 88.4803 34.9912C89.0143 34.9912 89.5483 34.9022 90.0823 34.7242C90.6163 34.5017 91.128 34.1902 91.6175 33.7897C92.107 33.3447 92.552 32.7662 92.9525 32.0542C93.353 31.2977 93.5533 30.3855 93.5533 29.3175V5.75475C93.5533 4.50875 93.9983 3.48525 94.8883 2.68425C95.8228 1.83875 96.913 1.416 98.159 1.416C100.829 1.6385 102.298 3.08475 102.565 5.75475V29.8515C102.565 32.2545 102.031 34.3237 100.963 36.0592C99.939 37.7947 98.7375 39.1965 97.358 40.2645C96.023 41.288 94.599 42.0668 93.086 42.6008C91.6175 43.1348 90.1045 43.4018 88.547 43.4018C87.034 43.4018 85.521 43.1348 84.008 42.6008C82.5395 42.0668 81.1155 41.2657 79.736 40.1977C79.469 40.0197 79.2243 39.8195 79.0018 39.597C78.7348 39.8195 78.49 40.0197 78.2675 40.1977C76.888 41.2657 75.4418 42.0668 73.9288 42.6008C72.4603 43.1348 70.9473 43.4018 69.3898 43.4018ZM109.907 37.3942C109.907 36.1482 110.33 35.1025 111.175 34.257C112.065 33.367 113.133 32.922 114.379 32.922H127.195V11.4285H114.379C113.133 11.4285 112.088 10.9835 111.242 10.0935C110.352 9.248 109.907 8.20225 109.907 6.95625C109.907 5.71025 110.33 4.6645 111.175 3.819C112.065 2.929 113.133 2.484 114.379 2.484H148.956C150.202 2.484 151.27 2.90675 152.16 3.75225C153.005 4.64225 153.428 5.71025 153.428 6.95625C153.428 8.20225 152.983 9.27025 152.093 10.1602C151.248 11.0057 150.202 11.4285 148.956 11.4285H136.207V32.922H148.956C150.202 32.922 151.27 33.3447 152.16 34.1902C153.005 35.0802 153.428 36.1482 153.428 37.3942C153.428 38.6402 152.983 39.7082 152.093 40.5982C151.248 41.4437 150.202 41.8665 148.956 41.8665H114.379C113.133 41.8665 112.088 41.4215 111.242 40.5315C110.352 39.686 109.907 38.6402 109.907 37.3942ZM181.597 0.681747C183.911 0.681747 186.18 0.948747 188.405 1.48275C190.675 2.01675 192.833 2.81775 194.88 3.88575C196.927 4.90925 198.729 6.28875 200.287 8.02425C201.889 9.75975 202.756 11.829 202.89 14.232V17.0355V38.3287C202.623 40.9987 201.154 42.445 198.484 42.6675C197.238 42.6675 196.148 42.267 195.214 41.466C194.324 40.6205 193.879 39.5747 193.879 38.3287V16.3012C193.79 14.9217 193.256 13.787 192.277 12.897C191.342 11.9625 190.274 11.2282 189.073 10.6942C187.916 10.1602 186.692 9.75975 185.401 9.49275C184.155 9.22575 182.887 9.09225 181.597 9.09225C180.306 9.09225 179.016 9.22575 177.725 9.49275C176.479 9.75975 175.255 10.1602 174.054 10.6942C172.897 11.2282 171.829 11.9625 170.85 12.897C169.915 13.787 169.404 14.9217 169.315 16.3012V38.3287C169.092 40.9987 167.646 42.445 164.976 42.6675C163.73 42.6675 162.64 42.267 161.705 41.466C160.815 40.6205 160.37 39.5747 160.37 38.3287V17.0355V14.232C160.504 11.829 161.349 9.75975 162.907 8.02425C164.464 6.28875 166.266 4.90925 168.313 3.88575C170.36 2.81775 172.496 2.01675 174.721 1.48275C176.991 0.948747 179.283 0.681747 181.597 0.681747ZM226.519 11.4285C224.828 11.5175 223.404 12.1627 222.247 13.3642C221.135 14.5657 220.334 15.9452 219.844 17.5027C219.355 19.0157 219.11 20.5732 219.11 22.1752C219.11 23.7772 219.333 25.357 219.778 26.9145C220.267 28.472 221.09 29.8515 222.247 31.053C223.404 32.21 224.828 32.833 226.519 32.922H248.547C251.35 33.189 252.886 34.7242 253.153 37.5277C253.108 38.7737 252.641 39.8195 251.751 40.665C250.861 41.466 249.793 41.8665 248.547 41.8665H227.254H224.183C221.068 41.6885 218.509 40.5092 216.507 38.3287C214.504 36.1037 213.058 33.5895 212.168 30.786C211.323 27.9825 210.9 25.1122 210.9 22.1752C210.9 19.9947 211.145 17.8365 211.634 15.7005C212.124 13.5645 212.88 11.5397 213.904 9.62625C214.972 7.66825 216.373 5.9995 218.109 4.62C219.889 3.2405 221.914 2.5285 224.183 2.484H225.451H248.547C251.35 2.751 252.886 4.28625 253.153 7.08975C253.153 8.33575 252.685 9.3815 251.751 10.227C250.861 11.028 249.793 11.4285 248.547 11.4285H226.519ZM263.766 1.416C265.012 1.416 266.08 1.83875 266.97 2.68425C267.86 3.48525 268.327 4.50875 268.372 5.75475V21.8415C268.327 23.666 268.438 25.357 268.705 26.9145C269.017 28.4275 269.729 29.7847 270.841 30.9862C271.954 32.1877 273.356 32.833 275.047 32.922H296.407C297.653 32.9665 298.676 33.4337 299.477 34.3237C300.323 35.2137 300.745 36.2817 300.745 37.5277C300.701 38.7292 300.256 39.7527 299.41 40.5982C298.609 41.3992 297.608 41.822 296.407 41.8665H272.777C269.662 41.6885 267.081 40.6427 265.034 38.7292C263.032 36.7712 261.585 34.3905 260.695 31.587C259.85 28.7835 259.405 25.802 259.36 22.6425V5.75475C259.405 4.55325 259.85 3.552 260.695 2.751C261.541 1.9055 262.564 1.4605 263.766 1.416ZM319.502 2.484H322.573H345.268C346.514 2.5285 347.537 2.99575 348.338 3.88575C349.184 4.77575 349.606 5.84375 349.606 7.08975C349.384 9.75975 347.938 11.206 345.268 11.4285H321.772C320.081 11.5175 318.679 12.1627 317.566 13.3642C316.454 14.5657 315.631 15.9452 315.097 17.5027C314.607 19.0157 314.362 20.5732 314.362 22.1752C314.362 23.7772 314.607 25.357 315.097 26.9145C315.631 28.4275 316.454 29.7847 317.566 30.9862C318.679 32.1877 320.081 32.833 321.772 32.922H345.268C346.514 32.9665 347.537 33.4337 348.338 34.3237C349.184 35.2137 349.606 36.2817 349.606 37.5277C349.562 38.7292 349.117 39.7527 348.271 40.5982C347.47 41.3992 346.469 41.822 345.268 41.8665H320.77H319.502C316.387 41.6885 313.806 40.5092 311.759 38.3287C309.757 36.1037 308.31 33.5895 307.42 30.786C306.575 27.9825 306.152 25.1122 306.152 22.1752C306.152 19.2382 306.597 16.368 307.487 13.5645C308.377 10.761 309.823 8.269 311.826 6.0885C313.828 3.8635 316.387 2.662 319.502 2.484ZM349.473 21.9082C349.473 23.1542 349.028 24.2 348.138 25.0455C347.292 25.9355 346.247 26.3805 345.001 26.3805H324.842C323.596 26.3805 322.528 25.9577 321.638 25.1122C320.793 24.2222 320.37 23.1542 320.37 21.9082C320.37 20.6622 320.793 19.5942 321.638 18.7042C322.528 17.8587 323.596 17.436 324.842 17.436H345.001C346.247 17.436 347.292 17.881 348.138 18.771C349.028 19.6165 349.473 20.6622 349.473 21.9082Z" fill="#161613"/>
</svg>
