<svg width="21" height="23" viewBox="0 0 21 23" fill="none" xmlns="http://www.w3.org/2000/svg">
<path d="M20.4274 14.5727L18.3125 12.4577V9.65625C18.31 7.72027 17.5897 5.85399 16.291 4.41827C14.9922 2.98256 13.2073 2.0794 11.2812 1.88344V0.28125H9.71875V1.88344C7.79272 2.0794 6.00775 2.98256 4.70901 4.41827C3.41027 5.85399 2.69001 7.72027 2.6875 9.65625V12.4577L0.572578 14.5727C0.426084 14.7191 0.343774 14.9178 0.34375 15.125V17.4687C0.34375 17.6759 0.42606 17.8747 0.572573 18.0212C0.719086 18.1677 0.9178 18.25 1.125 18.25H6.59375V18.8569C6.57681 19.848 6.92618 20.8104 7.57491 21.5599C8.22364 22.3093 9.1261 22.7931 10.1094 22.9184C10.6525 22.9722 11.2008 22.9119 11.7192 22.7411C12.2375 22.5704 12.7144 22.293 13.1191 21.9269C13.5238 21.5608 13.8474 21.114 14.0691 20.6153C14.2908 20.1166 14.4056 19.577 14.4062 19.0312V18.25H19.875C20.0822 18.25 20.2809 18.1677 20.4274 18.0212C20.5739 17.8747 20.6562 17.6759 20.6562 17.4687V15.125C20.6562 14.9178 20.5739 14.7191 20.4274 14.5727ZM12.8438 19.0312C12.8437 19.6528 12.5968 20.249 12.1573 20.6885C11.7177 21.1281 11.1216 21.375 10.5 21.375C9.8784 21.375 9.28226 21.1281 8.84272 20.6885C8.40318 20.249 8.15625 19.6528 8.15625 19.0312V18.25H12.8438V19.0312ZM19.0938 16.6875H1.90625V15.4485L4.02109 13.3336C4.16762 13.1871 4.24996 12.9884 4.25 12.7812V9.65625C4.25 7.99865 4.90848 6.40893 6.08058 5.23683C7.25268 4.06473 8.8424 3.40625 10.5 3.40625C12.1576 3.40625 13.7473 4.06473 14.9194 5.23683C16.0915 6.40893 16.75 7.99865 16.75 9.65625V12.7812C16.75 12.9884 16.8324 13.1871 16.9789 13.3336L19.0938 15.4485V16.6875Z" fill="#161613"/>
</svg>
