<svg width="54" height="16" viewBox="0 0 54 16" fill="none" xmlns="http://www.w3.org/2000/svg">
<path d="M0.03125 2.69531C0.03125 2.25781 0.179688 1.89062 0.476562 1.59375C0.789062 1.28125 1.16406 1.125 1.60156 1.125H15.2422C15.6797 1.125 16.0547 1.27344 16.3672 1.57031C16.6641 1.88281 16.8125 2.25781 16.8125 2.69531C16.8125 3.13281 16.6562 3.50781 16.3438 3.82031C16.0469 4.11719 15.6797 4.26562 15.2422 4.26562H10.0156V13.7578C9.92188 14.6953 9.40625 15.2031 8.46875 15.2812C8.03125 15.2812 7.64844 15.1406 7.32031 14.8594C7.00781 14.5625 6.85156 14.1953 6.85156 13.7578V4.26562H1.60156C1.16406 4.26562 0.796875 4.10938 0.5 3.79688C0.1875 3.5 0.03125 3.13281 0.03125 2.69531ZM24.2422 15.4922C23.7109 15.4922 23.1797 15.3984 22.6484 15.2109C22.1328 15.0234 21.6328 14.75 21.1484 14.3906C20.6641 14.0156 20.2422 13.5234 19.8828 12.9141C19.5234 12.3047 19.3281 11.5781 19.2969 10.7344V2.27344C19.2969 1.83594 19.4531 1.47656 19.7656 1.19531C20.0938 0.898438 20.4766 0.75 20.9141 0.75C21.8516 0.828125 22.3594 1.33594 22.4375 2.27344V10.5469C22.4531 10.9219 22.5312 11.2422 22.6719 11.5078C22.8125 11.7578 22.9688 11.9609 23.1406 12.1172C23.3125 12.2578 23.4844 12.3672 23.6562 12.4453C23.8438 12.5078 24.0312 12.5391 24.2188 12.5391C24.4062 12.5391 24.5938 12.5078 24.7812 12.4453C24.9688 12.3672 25.1484 12.2578 25.3203 12.1172C25.4922 11.9609 25.6484 11.7578 25.7891 11.5078C25.9297 11.2422 26 10.9219 26 10.5469V2.27344C26 1.83594 26.1562 1.47656 26.4688 1.19531C26.7969 0.898438 27.1797 0.75 27.6172 0.75C28.5547 0.828125 29.0703 1.33594 29.1641 2.27344V10.5469C29.1797 10.9219 29.2578 11.2344 29.3984 11.4844C29.5391 11.75 29.6953 11.9609 29.8672 12.1172C30.0391 12.2578 30.2109 12.3672 30.3828 12.4453C30.5703 12.5078 30.7578 12.5391 30.9453 12.5391C31.1328 12.5391 31.3203 12.5078 31.5078 12.4453C31.6953 12.3672 31.875 12.2578 32.0469 12.1172C32.2188 11.9609 32.375 11.7578 32.5156 11.5078C32.6562 11.2422 32.7266 10.9219 32.7266 10.5469V2.27344C32.7266 1.83594 32.8828 1.47656 33.1953 1.19531C33.5234 0.898438 33.9062 0.75 34.3438 0.75C35.2812 0.828125 35.7969 1.33594 35.8906 2.27344V10.7344C35.8906 11.5781 35.7031 12.3047 35.3281 12.9141C34.9688 13.5234 34.5469 14.0156 34.0625 14.3906C33.5938 14.75 33.0938 15.0234 32.5625 15.2109C32.0469 15.3984 31.5156 15.4922 30.9688 15.4922C30.4375 15.4922 29.9062 15.3984 29.375 15.2109C28.8594 15.0234 28.3594 14.7422 27.875 14.3672C27.7812 14.3047 27.6953 14.2344 27.6172 14.1562C27.5234 14.2344 27.4375 14.3047 27.3594 14.3672C26.875 14.7422 26.3672 15.0234 25.8359 15.2109C25.3203 15.3984 24.7891 15.4922 24.2422 15.4922ZM44.3047 4.26562C43.7109 4.29688 43.2109 4.52344 42.8047 4.94531C42.4141 5.36719 42.1328 5.85156 41.9609 6.39844C41.7891 6.92969 41.7031 7.47656 41.7031 8.03906C41.7031 8.60156 41.7812 9.15625 41.9375 9.70312C42.1094 10.25 42.3984 10.7344 42.8047 11.1562C43.2109 11.5625 43.7109 11.7812 44.3047 11.8125H52.0391C53.0234 11.9062 53.5625 12.4453 53.6562 13.4297C53.6406 13.8672 53.4766 14.2344 53.1641 14.5312C52.8516 14.8125 52.4766 14.9531 52.0391 14.9531H44.5625H43.4844C42.3906 14.8906 41.4922 14.4766 40.7891 13.7109C40.0859 12.9297 39.5781 12.0469 39.2656 11.0625C38.9688 10.0781 38.8203 9.07031 38.8203 8.03906C38.8203 7.27344 38.9062 6.51562 39.0781 5.76562C39.25 5.01562 39.5156 4.30469 39.875 3.63281C40.25 2.94531 40.7422 2.35938 41.3516 1.875C41.9766 1.39063 42.6875 1.14062 43.4844 1.125H43.9297H52.0391C53.0234 1.21875 53.5625 1.75781 53.6562 2.74219C53.6562 3.17969 53.4922 3.54688 53.1641 3.84375C52.8516 4.125 52.4766 4.26562 52.0391 4.26562H44.3047Z" fill="#161613"/>
</svg>
